OpenSim_Sub02_EMGStiffKnee_GRF.mot
version=1
nRows=52
nColumns=19
inDegrees=no
endheader
time	lFx	lFy	lFz	lCOPx	lCOPy	lCOPz	rFx	rFy	rFz	rCOPx	rCOPy	rCOPz	lMx	lMy	lMz	rMx	rMy	rMz
19.72000000	4.22064253	81.57329749	1.66503403	0.40047330	0	-0.64940519	-89.96700019	512.10409973	-45.23400385	0.88842183	0	-0.40983877	0	1.12135147	0	0	-2.67106661	0.00000000
19.73000000	-4.35980343	54.92462037	1.79762022	0.37993412	0	-0.61398562	-88.25650712	528.22369451	-48.44030409	0.88602602	0	-0.40884989	0	0.17538940	0	0	-2.93144537	0
19.74000000	-9.32990973	35.44365186	1.54868734	0.32021507	0	-0.51050113	-85.94910864	539.27193677	-50.78378522	0.88321765	0	-0.40794451	0	-0.42134387	0	0	-3.11567263	0.00000000
19.75000000	-9.95000730	21.01914683	0.65785951	0.20882863	0	-0.32555278	-83.05036520	545.23715998	-52.02198723	0.88025579	0	-0.40716590	0	-0.60603168	0	0	-3.19008051	0
19.76000000	-7.29966392	10.04110532	-0.59970639	0.08879824	0	-0.13477558	-79.69981263	546.80482522	-51.86044912	0.87713658	0	-0.40646661	0	-0.40110931	0	0	-3.21672386	0.00000000
19.77000000	-4.07607211	2.84552320	-1.63745101	0.01656053	0	-0.02286733	-76.36541727	544.66169575	-50.97326225	0.87385414	0	-0.40578308	0	-0.16374764	0	0	-3.23639467	0.00000000
19.78000000	-1.99946485	-0.48175137	-2.11966835	-0.01005882	0	0.01709641	-73.18692680	539.34046790	-50.28106473	0.87061586	0	-0.40507941	0	-0.02631207	0	0	-3.25388767	0
19.79000000	-1.15438187	-1.30691302	-2.22243208	-0.01248169	0	0.01982206	-69.91307892	531.38649658	-49.92990208	0.86724768	0	-0.40440425	0	0.02195813	0	0	-3.24663506	-0.00000000
19.80000000	-1.00137663	-1.06932148	-2.16108412	-0.00741610	0	0.01148152	-66.38540317	521.62274381	-49.56227562	0.86366064	0	-0.40381456	0	0.02465240	0	0	-3.12873337	-0.00000000
19.81000000	-1.08908494	-0.64165489	-2.07126085	-0.00269078	0	0.00403450	-62.66084242	510.83518570	-48.81689762	0.85964044	0	-0.40336229	0	0.01409596	0	0	-2.97580967	0
19.82000000	-1.19327576	-0.39249032	-2.03798334	-0.00021484	0	0.00022666	-58.80215164	499.80748990	-47.77214800	0.85519156	0	-0.40308996	0	0.00486967	0	0	-2.83245400	0.00000000
19.83000000	-1.26310421	-0.34233586	-2.02348501	0.00053631	0	-0.00088114	-54.81297902	489.09057216	-46.74319904	0.85056671	0	-0.40297908	0	0.00021089	0	0	-2.64467350	0.00000000
19.84000000	-1.31406491	-0.40616727	-2.05723015	0.00048929	0	-0.00077058	-50.77501968	478.90760122	-45.80862347	0.84588502	0	-0.40301522	0	-0.00111411	0	0	-2.49719941	-0.00000000
19.85000000	-1.34679084	-0.46405402	-2.11265544	0.00025327	0	-0.00038924	-46.94164123	469.61500693	-45.04577914	0.84119542	0	-0.40321438	0	-0.00095436	0	0	-2.42089653	-0.00000000
19.86000000	-1.36564195	-0.47545255	-2.16794200	0.00007527	0	-0.00011078	-43.56145224	461.88144350	-44.56467619	0.83639972	0	-0.40352331	0	-0.00047606	0	0	-2.33759436	0
19.87000000	-1.38916031	-0.44300979	-2.21564556	-0.00000607	0	0.00001329	-40.64990316	456.47818688	-44.23817611	0.83141769	0	-0.40384480	0	-0.00013235	0	0	-2.27724222	0.00000000
19.88000000	-1.38957784	-0.38202274	-2.28661200	-0.00002475	0	0.00003994	-38.07981306	453.85899856	-43.95172686	0.82616689	0	-0.40416320	0	0.00001879	0	0	-2.24708377	-0.00000000
19.89000000	-1.36125884	-0.29881965	-2.35683397	-0.00001838	0	0.00002872	-35.64619913	454.24304359	-43.77448677	0.82052476	0	-0.40443925	0	0.00005011	0	0	-2.18694041	0
19.90000000	-1.34548572	-0.27196804	-2.37479980	-0.00000832	0	0.00001266	-33.25448740	457.60645192	-43.84768634	0.81450561	0	-0.40461981	0	0.00003556	0	0	-2.16861604	0.00000000
19.91000000	-1.34832826	-0.32946983	-2.39046060	-0.00000189	0	0.00000266	-31.15744114	463.73270294	-44.26557112	0.80822449	0	-0.40468637	0	0.00001560	0	0	-2.20258745	0
19.92000000	-1.34940635	-0.37373287	-2.42480021	0.00000068	0	-0.00000120	-29.51286124	472.07478141	-45.11088822	0.80172347	0	-0.40470783	0	0.00000322	0	0	-2.19352982	0.00000000
19.93000000	-1.35107670	-0.38402111	-2.47086713	0.00000118	0	-0.00000177	-28.15429606	481.77533912	-46.12855331	0.79499442	0	-0.40477711	0	-0.00000195	0	0	-2.13450377	0
19.94000000	-1.38700017	-0.39817423	-2.53028889	0.00000113	0	-0.00000139	-26.93428785	492.11373145	-47.04763353	0.78830859	0	-0.40493336	0	-0.00000380	0	0	-2.01480079	0.00000000
19.95000000	-1.48203817	-0.40964013	-2.61140773	0.00000122	0	-0.00000115	-25.65373303	502.53895812	-47.85525837	0.78188105	0	-0.40520301	0	-0.00000510	0	0	-1.81659058	0.00000000
19.96000000	-1.61911675	-0.40790929	-2.66852762	0.00000118	0	-0.00000099	-24.02824113	512.38687758	-48.56120110	0.77571018	0	-0.40552517	0	-0.00000572	0	0	-1.63193197	-0.00000000
19.97000000	-1.74588892	-0.38581804	-2.71426734	-0.00000016	0	0.00000004	-21.94030784	520.88863320	-49.31680076	0.76941299	0	-0.40579370	0	-0.00000156	0	0	-1.45993315	0.00000000
19.98000000	-1.85609708	-0.35374603	-2.73806816	-0.00000478	0	0.00000358	-19.43521562	527.56071751	-50.28412833	0.76282008	0	-0.40595890	0	0.00001536	0	0	-1.29678224	-0.00000000
19.99000000	-1.93539052	-0.29845740	-2.74949776	-0.00001404	0	0.00001089	-16.87624565	532.57184600	-51.34570949	0.75598546	0	-0.40603707	0	0.00005255	0	0	-1.15746901	0
20	-1.97035785	-0.21667693	-2.78823268	-0.00002492	0	0.00001989	-14.70759914	536.46243555	-52.29069115	0.74890862	0	-0.40608692	0	0.00010261	0	0	-0.98894729	0
20.01000000	-1.97998176	-0.14220113	-2.85308657	-0.00002307	0	0.00001965	-13.09975079	539.47188329	-52.87816583	0.74189067	0	-0.40615408	0	0.00011481	0	0	-0.77433409	0.00000000
20.02000000	-2.03377819	-0.06877138	-2.93361370	0.00002390	0	-0.00001525	-11.75301783	541.24265509	-52.85475155	0.73506555	0	-0.40627657	0	-0.00003779	0	0	-0.57835776	0
20.03000000	-2.23742831	0.19445414	-2.99786412	0.00016058	0	-0.00012117	-10.19406987	541.29596358	-52.16067776	0.72849514	0	-0.40649402	0	-0.00055089	0	0	-0.38000873	0.00000000
20.04000000	-2.72630651	1.01216764	-2.96811067	0.00040056	0	-0.00031281	-8.10113020	539.23388871	-50.84968244	0.72198083	0	-0.40682678	0	-0.00154178	0	0	-0.12090943	0.00000000
20.05000000	-3.49818184	2.45072167	-2.84889383	0.00061636	0	-0.00049739	-5.40734644	534.89035599	-49.00014112	0.71539372	0	-0.40722808	0	-0.00262719	0	0	0.14501424	0.00000000
20.06000000	-4.32296124	3.89662024	-2.71217486	0.00036650	0	-0.00033533	-2.24065662	528.43652376	-46.97294945	0.70884895	0	-0.40768811	0	-0.00219000	0	0	0.40743938	0
20.07000000	-5.00679850	4.86937226	-2.62266127	-0.00121609	0	0.00086031	1.17036282	520.44207675	-45.12226943	0.70260365	0	-0.40818061	0	0.00326309	0	0	0.68798426	0
20.08000000	-5.46479693	5.41641694	-2.59452115	-0.00510958	0	0.00390313	4.40120185	511.59945147	-43.54941976	0.69670629	0	-0.40865838	0	0.01828556	0	0	0.97401209	0.00000000
20.09000000	-5.73850430	5.79243584	-2.58386005	-0.01101821	0	0.00867693	7.26497640	502.20664368	-42.27728855	0.69085698	0	-0.40911392	0	0.04355978	0	0	1.28853300	0
20.10000000	-5.98882172	6.14110341	-2.53183842	-0.01432829	0	0.01174133	10.00155680	492.04076720	-41.20415206	0.68477953	0	-0.40954677	0	0.06390672	0	0	1.60739974	-0.00000000
20.11000000	-6.38000711	6.38595097	-2.50364305	-0.00204854	0	0.00301325	12.99531740	480.78700203	-40.11512370	0.67823808	0	-0.40998780	0	0.03030837	0	0	1.87617985	0
20.12000000	-7.22798936	6.64579986	-2.44008028	0.04806500	0	-0.03530461	16.31332458	468.86664540	-38.89263097	0.67148610	0	-0.41043155	0	-0.14961754	0	0	2.09345727	0.00000000
20.13000000	-9.15869908	7.76377420	-2.06917208	0.15479205	0	-0.11941784	19.73547971	457.11247200	-37.51703151	0.66490072	0	-0.41077331	0	-0.57258526	0	0	2.24828973	0.00000000
20.14000000	-13.14362697	12.49553659	-0.76213976	0.30091862	0	-0.23914237	23.14390020	445.85030529	-36.02300137	0.65850594	0	-0.41094042	0	-1.22417134	0	0	2.32281486	0
20.15000000	-20.06912953	26.48225536	2.48805238	0.44696353	0	-0.36759884	26.56725758	434.64606165	-34.48870921	0.65218734	0	-0.41098459	0	-1.98137209	0	0	2.39043783	-0.00000000
20.16000000	-29.64350301	57.79099427	8.57343520	0.57601316	0	-0.49010923	30.13285154	422.38503004	-32.82280565	0.64568223	0	-0.41096914	0	-2.74212727	0	0	2.46496146	0
20.17000000	-39.06826004	113.18462576	17.00227292	0.67220457	0	-0.58038833	33.81500988	407.34826967	-30.88258076	0.63892402	0	-0.41093182	0	-3.37507671	0	0	2.56254590	-0.00000000
20.18000000	-44.17317207	190.72428919	24.38110102	0.72729184	0	-0.62467595	37.67760678	387.19244513	-28.60919572	0.63246126	0	-0.41086107	0	-3.09375797	0	0	2.66724756	0
20.19000000	-44.81297979	275.59934284	25.86659582	0.74776374	0	-0.63626683	41.30592425	359.34183758	-26.04613059	0.62704857	0	-0.41086288	0	-0.83562694	0	0	2.71312913	0.00000000
20.20000000	-42.20009162	350.48570699	22.50710557	0.74733080	0	-0.63347235	43.36889238	322.05335186	-23.24427434	0.62291005	0	-0.41135671	0	2.61399045	0	0	2.64539897	0
20.21000000	-38.63823148	406.78732084	20.51287033	0.73801707	0	-0.62808488	41.83521199	276.30356199	-20.18366094	0.62150487	0	-0.41302402	0	4.89124361	0	0	2.42991609	0
20.22000000	-34.43938358	444.81890702	21.44327944	0.72744833	0	-0.62480878	35.64474884	225.46290206	-17.00377365	0.62499938	0	-0.41684458	0	5.74051173	0	0	2.06192951	0.00000000
20.23000000	-29.82748006	470.18592473	25.15530128	0.71845645	0	-0.62404764	25.91574436	173.94105227	-14.12238574	0.63360480	0	-0.42294110	0	5.47980202	0	0	1.57040961	0
